<svg xmlns="http://www.w3.org/2000/svg" width="820" height="500" viewBox="0 0 820 500">
<rect width="100%" height="100%" fill="#ffffff"/>
<text x="410" y="34" text-anchor="middle" font-family="Arial, Microsoft YaHei" font-size="24" font-weight="700" fill="#1f2937">Purchase Conversion Rate by Price Range</text>
<line x1="90" y1="390.0" x2="750" y2="390.0" stroke="#e5e7eb"/>
<text x="76" y="395.0" text-anchor="end" font-family="Arial" font-size="13" fill="#6b7280">0.0%</text>
<line x1="90" y1="310.0" x2="750" y2="310.0" stroke="#e5e7eb"/>
<text x="76" y="315.0" text-anchor="end" font-family="Arial" font-size="13" fill="#6b7280">0.5%</text>
<line x1="90" y1="230.0" x2="750" y2="230.0" stroke="#e5e7eb"/>
<text x="76" y="235.0" text-anchor="end" font-family="Arial" font-size="13" fill="#6b7280">1.0%</text>
<line x1="90" y1="150.0" x2="750" y2="150.0" stroke="#e5e7eb"/>
<text x="76" y="155.0" text-anchor="end" font-family="Arial" font-size="13" fill="#6b7280">1.5%</text>
<line x1="90" y1="70.0" x2="750" y2="70.0" stroke="#e5e7eb"/>
<text x="76" y="75.0" text-anchor="end" font-family="Arial" font-size="13" fill="#6b7280">2.0%</text>
<line x1="90" y1="390" x2="750" y2="390" stroke="#9ca3af"/>
<line x1="90" y1="70" x2="90" y2="390" stroke="#9ca3af"/>
<rect x="90.0" y="186.8" width="78" height="203.2" rx="4" fill="#60a5fa"/>
<text x="129.0" y="177.8" text-anchor="middle" font-family="Arial" font-size="14" font-weight="700" fill="#1f2937">1.27%</text>
<text x="129.0" y="420" text-anchor="middle" font-family="Arial" font-size="14" fill="#374151">0-100</text>
<rect x="235.5" y="118.0" width="78" height="272.0" rx="4" fill="#2563eb"/>
<text x="274.5" y="109.0" text-anchor="middle" font-family="Arial" font-size="14" font-weight="700" fill="#1f2937">1.70%</text>
<text x="274.5" y="420" text-anchor="middle" font-family="Arial" font-size="14" fill="#374151">100-300</text>
<rect x="381.0" y="169.2" width="78" height="220.8" rx="4" fill="#60a5fa"/>
<text x="420.0" y="160.2" text-anchor="middle" font-family="Arial" font-size="14" font-weight="700" fill="#1f2937">1.38%</text>
<text x="420.0" y="420" text-anchor="middle" font-family="Arial" font-size="14" fill="#374151">300-500</text>
<rect x="526.5" y="151.6" width="78" height="238.4" rx="4" fill="#60a5fa"/>
<text x="565.5" y="142.6" text-anchor="middle" font-family="Arial" font-size="14" font-weight="700" fill="#1f2937">1.49%</text>
<text x="565.5" y="420" text-anchor="middle" font-family="Arial" font-size="14" fill="#374151">500-1000</text>
<rect x="672.0" y="196.4" width="78" height="193.6" rx="4" fill="#60a5fa"/>
<text x="711.0" y="187.4" text-anchor="middle" font-family="Arial" font-size="14" font-weight="700" fill="#1f2937">1.21%</text>
<text x="711.0" y="420" text-anchor="middle" font-family="Arial" font-size="14" fill="#374151">1000+</text>
<text x="410" y="470" text-anchor="middle" font-family="Arial, Microsoft YaHei" font-size="14" fill="#6b7280">The 100-300 price range has the highest purchase conversion rate.</text>
</svg>